<svg width="75" height="75" viewBox="0 0 75 75" fill="none" xmlns="http://www.w3.org/2000/svg">
<path d="M21.0938 65.625L20.3125 58.75L29.2188 34.2188C30 34.9479 30.8469 35.5604 31.7594 36.0562C32.6719 36.5521 33.6479 36.9292 34.6875 37.1875L26.0938 60.7813L21.0938 65.625ZM53.9062 65.625L48.9062 60.7813L40.3125 37.1875C41.3542 36.9271 42.3313 36.549 43.2438 36.0531C44.1562 35.5573 45.0021 34.9458 45.7812 34.2188L54.6875 58.75L53.9062 65.625ZM37.5 34.375C34.8958 34.375 32.6823 33.4635 30.8594 31.6406C29.0365 29.8177 28.125 27.6042 28.125 25C28.125 22.9688 28.7115 21.1583 29.8844 19.5688C31.0573 17.9792 32.5542 16.8729 34.375 16.25V9.375H40.625V16.25C42.4479 16.875 43.9458 17.9823 45.1187 19.5719C46.2917 21.1615 46.8771 22.9708 46.875 25C46.875 27.6042 45.9635 29.8177 44.1406 31.6406C42.3177 33.4635 40.1042 34.375 37.5 34.375ZM37.5 28.125C38.3854 28.125 39.1281 27.825 39.7281 27.225C40.3281 26.625 40.6271 25.8833 40.625 25C40.625 24.1146 40.325 23.3719 39.725 22.7719C39.125 22.1719 38.3833 21.8729 37.5 21.875C36.6146 21.875 35.8719 22.175 35.2719 22.775C34.6719 23.375 34.3729 24.1167 34.375 25C34.375 25.8854 34.675 26.6281 35.275 27.2281C35.875 27.8281 36.6167 28.1271 37.5 28.125Z" fill="#F8F8F8"/>
</svg>

