<svg width="28" height="22" viewBox="0 0 28 22" fill="none" xmlns="http://www.w3.org/2000/svg">
<path d="M15.586 0.586C15.9611 0.211058 16.4697 0.000427246 17 0.000427246C17.5303 0.000427246 18.0389 0.211058 18.414 0.586L27.414 9.586C27.7889 9.96106 27.9996 10.4697 27.9996 11C27.9996 11.5303 27.7889 12.0389 27.414 12.414L18.414 21.414C18.0368 21.7783 17.5316 21.9799 17.0072 21.9753C16.4828 21.9708 15.9812 21.7605 15.6104 21.3896C15.2395 21.0188 15.0292 20.5172 15.0247 19.9928C15.0201 19.4684 15.2217 18.9632 15.586 18.586L21 13H2C1.46957 13 0.960859 12.7893 0.585786 12.4142C0.210714 12.0391 0 11.5304 0 11C0 10.4696 0.210714 9.96086 0.585786 9.58579C0.960859 9.21072 1.46957 9 2 9H21L15.586 3.414C15.2111 3.03894 15.0004 2.53033 15.0004 2C15.0004 1.46967 15.2111 0.961055 15.586 0.586Z" fill="white"/>
</svg>

