<svg width="75" height="75" viewBox="0 0 75 75" fill="none" xmlns="http://www.w3.org/2000/svg">
<path d="M15.625 65.625C13.9063 65.625 12.4344 65.0125 11.2094 63.7875C9.98438 62.5625 9.37292 61.0917 9.37501 59.375V15.625C9.37501 13.9062 9.98751 12.4344 11.2125 11.2094C12.4375 9.98437 13.9083 9.37291 15.625 9.375H59.375C61.0938 9.375 62.5656 9.9875 63.7906 11.2125C65.0156 12.4375 65.6271 13.9083 65.625 15.625V59.375C65.625 61.0938 65.0125 62.5656 63.7875 63.7906C62.5625 65.0156 61.0917 65.6271 59.375 65.625H15.625ZM18.75 53.125H56.25L44.5313 37.5L35.1563 50L28.125 40.625L18.75 53.125Z" fill="#F8F8F8"/>
</svg>

