<svg width="61" height="62" viewBox="0 0 61 62" fill="none" xmlns="http://www.w3.org/2000/svg">
    <g clip-path="url(#clip0_8_5)">
        <path d="M55.3237 7.71437C53.9285 6.30457 51.6622 6.28485 50.2423 7.67016L35.8477 21.714L30.826 26.6133C29.4061 27.9986 27.1397 27.9789 25.7445 26.5691C24.3493 25.1593 24.3691 22.9091 25.789 21.5238L39.5505 8.09762L41.5819 6.11573C43.0018 4.73043 43.0217 2.48021 41.6264 1.07041C40.2312 -0.339392 37.9649 -0.35911 36.545 1.0262L22.1504 15.07L5.37406 31.4376C3.69117 33.0795 2.35047 35.0344 1.4285 37.1907C0.506536 39.3471 0.0213653 41.6626 0.000689896 44.0051C-0.0199855 46.3476 0.42424 48.6712 1.308 50.8433C2.19176 53.0153 3.49776 54.9933 5.15141 56.6642C8.49112 60.0388 13.0442 61.9579 17.809 61.9993C22.5738 62.0408 27.1601 60.2012 30.5588 56.8853L59.6983 28.4558L59.9219 28.2376C61.3418 26.8523 61.3617 24.6021 59.9665 23.1923C58.5712 21.7825 56.3049 21.7628 54.885 23.1481L40.4904 37.1919L38.417 39.2148C37.608 40.0041 36.5242 40.3365 35.4833 40.2163C35.2921 40.1942 35.1025 40.1565 34.9162 40.104C34.9089 40.1017 34.9016 40.0999 34.8942 40.0977C34.8054 40.072 34.7173 40.043 34.6303 40.0103C34.6215 40.0072 34.6126 40.0035 34.6038 40.0001C34.5152 39.9661 34.4276 39.929 34.3414 39.8877C34.3405 39.8873 34.3392 39.8864 34.3383 39.8859C34.254 39.8455 34.1711 39.8009 34.0895 39.7535C34.0815 39.7489 34.0734 39.7445 34.0654 39.7399C33.9876 39.6938 33.9114 39.6441 33.8365 39.5917C33.8182 39.5789 33.7999 39.5661 33.7817 39.5529C33.7606 39.5376 33.7396 39.5221 33.7188 39.5062C33.6946 39.4879 33.6708 39.469 33.647 39.4499C33.6274 39.4342 33.6076 39.4184 33.5882 39.4021C33.5602 39.3787 33.5326 39.3545 33.5051 39.3301C33.4901 39.3167 33.475 39.3036 33.4602 39.29C33.418 39.2512 33.3764 39.2116 33.3357 39.1705C33.2939 39.1283 33.2536 39.0853 33.2144 39.0416C33.1992 39.0247 33.1848 39.0073 33.17 38.9902C33.1468 38.9633 33.1236 38.9364 33.1013 38.9091C33.0843 38.8883 33.0681 38.8672 33.0517 38.8461C33.0327 38.8216 33.0136 38.7973 32.9953 38.7725C32.9785 38.7498 32.9624 38.7267 32.9463 38.7037C32.9291 38.6793 32.9121 38.6548 32.8956 38.6301C32.8818 38.6092 32.8684 38.5882 32.855 38.5671C32.8368 38.5386 32.8189 38.51 32.8016 38.4811C32.7895 38.4606 32.7777 38.4401 32.766 38.4195C32.7503 38.392 32.7351 38.3643 32.7202 38.3365C32.7081 38.3139 32.6961 38.2912 32.6846 38.2683C32.6705 38.2406 32.6569 38.2126 32.6437 38.1845C32.6325 38.161 32.6213 38.1375 32.6107 38.1138C32.5995 38.0888 32.589 38.0636 32.5785 38.0385C32.567 38.0112 32.5555 37.9839 32.5448 37.9564C32.536 37.9338 32.5279 37.9111 32.5196 37.8885C32.5088 37.8591 32.4979 37.8298 32.4879 37.8002C32.4799 37.7764 32.4727 37.7524 32.4652 37.7285C32.4564 37.7003 32.4471 37.6721 32.439 37.6437C32.4313 37.6164 32.4246 37.589 32.4174 37.5616C32.3887 37.451 32.3653 37.3396 32.3474 37.2274C32.3443 37.2079 32.3408 37.1884 32.338 37.1688C32.3333 37.1355 32.3294 37.1022 32.3257 37.0688C32.3234 37.0488 32.321 37.0288 32.3191 37.0088C32.3155 36.973 32.3133 36.9371 32.311 36.9012C32.3096 36.8837 32.3082 36.8663 32.3073 36.8489C32.3055 36.8115 32.3042 36.774 32.3037 36.7365C32.3034 36.7207 32.3033 36.7048 32.3033 36.6889C32.3031 36.6503 32.3035 36.6118 32.3046 36.5733C32.305 36.559 32.3055 36.5448 32.306 36.5306C32.3078 36.4885 32.31 36.4464 32.3132 36.4043C32.3137 36.3961 32.3146 36.3878 32.315 36.3796C32.3186 36.3357 32.3228 36.2918 32.3281 36.248C32.3295 36.2374 32.3308 36.2268 32.3322 36.2163C32.412 35.6 32.6543 35.0003 33.059 34.4844C33.0589 34.4843 33.059 34.4845 33.059 34.4844C33.1569 34.3596 33.2632 34.2392 33.3801 34.1252L49.6245 18.2766L55.2793 12.7596C56.6992 11.3743 56.719 9.12417 55.3237 7.71437ZM25.6554 36.6598C25.7394 36.7446 25.8219 36.8309 25.903 36.9185C25.9405 36.9598 25.9778 37.0014 26.0147 37.0433C26.0567 37.0895 26.0983 37.1361 26.1395 37.183C26.1758 37.2255 26.2119 37.2683 26.2475 37.3114C26.2906 37.3622 26.3331 37.4134 26.3752 37.4649C26.4034 37.5003 26.4314 37.5359 26.4591 37.5716C26.505 37.6293 26.5503 37.6876 26.5949 37.7462C26.6249 37.7865 26.6546 37.827 26.684 37.8677C26.7259 37.9244 26.7673 37.9816 26.808 38.0391C26.8349 38.0779 26.8615 38.1168 26.8879 38.1559C26.9292 38.2161 26.9698 38.2766 27.0099 38.3375C27.0377 38.3805 27.0653 38.4238 27.0926 38.4672C27.1279 38.5227 27.1627 38.5785 27.197 38.6346C27.2261 38.6829 27.2549 38.7314 27.2832 38.7801C27.3161 38.8361 27.3486 38.8924 27.3805 38.949C27.4063 38.9953 27.4318 39.0418 27.457 39.0886C27.4886 39.1465 27.5197 39.2048 27.5502 39.2633C27.5747 39.3107 27.5988 39.3583 27.6226 39.406C27.6535 39.4679 27.6839 39.53 27.7136 39.5924C27.7342 39.6359 27.7545 39.6795 27.7745 39.7232C27.8038 39.7871 27.8325 39.8512 27.8606 39.9156C27.8822 39.9651 27.9033 40.0148 27.9241 40.0647C27.9487 40.1237 27.9728 40.1829 27.9964 40.2423C28.0163 40.2924 28.0358 40.3426 28.0549 40.393C28.0784 40.455 28.1013 40.5172 28.1236 40.5797C28.1423 40.6319 28.1607 40.6842 28.1786 40.7367C28.1986 40.7958 28.2181 40.855 28.2371 40.9144C28.2546 40.9687 28.2716 41.0232 28.2882 41.0778C28.3065 41.1386 28.3242 41.1996 28.3414 41.2607C28.3568 41.3146 28.3718 41.3685 28.3864 41.4226C28.402 41.4818 28.4171 41.5411 28.4317 41.6005C28.4462 41.658 28.4603 41.7156 28.4738 41.7734C28.4875 41.8334 28.5006 41.8936 28.5131 41.9539C28.525 42.0087 28.5364 42.0637 28.5474 42.1188C28.5605 42.1865 28.5729 42.2544 28.5847 42.3224C28.5934 42.3709 28.6019 42.4194 28.61 42.468C28.6213 42.5395 28.6319 42.6112 28.6417 42.6829C28.6486 42.7299 28.6552 42.7769 28.6614 42.8239C28.6695 42.89 28.6769 42.9561 28.6837 43.0223C28.6899 43.0771 28.6958 43.132 28.7012 43.1869C28.7073 43.2571 28.7127 43.3274 28.7174 43.3978C28.7211 43.444 28.7246 43.4902 28.7278 43.5365C28.7323 43.6201 28.7359 43.7038 28.7384 43.7875C28.7401 43.8242 28.7416 43.8609 28.743 43.8976C28.7489 44.136 28.7468 44.3745 28.7367 44.6127C28.7348 44.6494 28.7327 44.686 28.7304 44.7227C28.7264 44.8064 28.7213 44.89 28.7153 44.9735C28.7113 45.0197 28.7071 45.0659 28.7025 45.1121C28.6966 45.1823 28.6899 45.2525 28.6826 45.3226C28.6762 45.3774 28.6694 45.4322 28.6622 45.4868C28.6542 45.5529 28.6456 45.6189 28.6364 45.6849C28.6294 45.7318 28.6219 45.7786 28.6142 45.8254C28.6031 45.897 28.5913 45.9685 28.5787 46.0398C28.5698 46.0882 28.5604 46.1366 28.5508 46.1849C28.5378 46.2527 28.5242 46.3204 28.51 46.3879C28.498 46.4427 28.4856 46.4975 28.4728 46.5522C28.4592 46.6122 28.445 46.6722 28.4303 46.732C28.4158 46.7894 28.4007 46.8468 28.3852 46.904C28.3695 46.9632 28.3534 47.0223 28.3368 47.0812C28.3212 47.135 28.3053 47.1886 28.2889 47.2422C28.2706 47.303 28.2518 47.3637 28.2325 47.4242C28.2149 47.4785 28.1969 47.5326 28.1785 47.5867C28.1585 47.6457 28.1379 47.7046 28.1169 47.7633C28.098 47.8155 28.0787 47.8675 28.0591 47.9194C28.0357 47.9814 28.0117 48.0432 27.9871 48.1048C27.9671 48.1549 27.9467 48.2047 27.9259 48.2544C27.9014 48.3135 27.8762 48.3723 27.8506 48.4308C27.8289 48.4803 27.8069 48.5296 27.7844 48.5787C27.7552 48.6427 27.7254 48.7063 27.6949 48.7696C27.6742 48.813 27.6531 48.8562 27.6317 48.8993C27.6009 48.9612 27.5695 49.0228 27.5375 49.0841C27.5129 49.1314 27.4879 49.1786 27.4626 49.2255C27.431 49.2835 27.3989 49.3412 27.3663 49.3986C27.3403 49.4449 27.314 49.491 27.2873 49.5369C27.2544 49.5929 27.221 49.6486 27.1871 49.7041C27.1579 49.7523 27.1283 49.8003 27.0983 49.848C27.063 49.9035 27.0273 49.9587 26.991 50.0136C26.9629 50.0565 26.9346 50.0993 26.906 50.1418C26.8649 50.202 26.8231 50.2618 26.7808 50.3212C26.7538 50.3599 26.7265 50.3983 26.6989 50.4366C26.6571 50.4935 26.6148 50.5499 26.5718 50.6059C26.5417 50.646 26.5113 50.686 26.4806 50.7258C26.435 50.7837 26.3887 50.8411 26.3418 50.898C26.3134 50.9333 26.2848 50.9683 26.256 51.0032C26.213 51.054 26.1696 51.1045 26.1256 51.1545C26.0892 51.1969 26.0525 51.2391 26.0154 51.281C25.9733 51.3272 25.9309 51.373 25.8881 51.4185C25.8504 51.4598 25.8125 51.5007 25.7742 51.5414C25.6916 51.6275 25.6076 51.7123 25.5221 51.7957C23.4829 53.7853 20.7311 54.889 17.8723 54.8642C15.0134 54.8393 12.2815 53.6878 10.2777 51.6631C9.28551 50.6605 8.50191 49.4738 7.97165 48.1705C7.4414 46.8673 7.17486 45.4731 7.18727 44.0676C7.19967 42.6621 7.49077 41.2728 8.04395 39.979C8.59713 38.6852 9.40156 37.5122 10.4113 36.5271C10.663 36.2816 10.9267 36.0484 11.2014 35.8285C13.2848 34.161 15.9185 33.3226 18.59 33.4762C21.2616 33.6298 23.7798 34.7646 25.6554 36.6598ZM22.2381 39.9938C21.1249 38.869 19.6072 38.2293 18.0189 38.2155C16.4306 38.2016 14.9019 38.8148 13.769 39.9201C13.208 40.4674 12.7611 41.1191 12.4538 41.8379C12.1465 42.5566 11.9847 43.3285 11.9778 44.1093C11.9709 44.8902 12.119 45.6647 12.4136 46.3887C12.7082 47.1127 13.1435 47.772 13.6947 48.329C14.246 48.886 14.9023 49.3297 15.6262 49.6348C16.3501 49.94 17.1275 50.1006 17.9139 50.1074C18.7004 50.1142 19.4805 49.9672 20.2097 49.6747C20.9389 49.3822 21.6029 48.95 22.1639 48.4027C22.7248 47.8554 23.1718 47.2038 23.4791 46.485C23.7864 45.7662 23.9481 44.9944 23.955 44.2135C23.9619 43.4327 23.8138 42.6582 23.5192 41.9341C23.2247 41.2101 22.7893 40.5508 22.2381 39.9938Z" fill="url(#paint0_linear_8_5)"/>
    </g>
    <defs>
        <linearGradient id="paint0_linear_8_5" x1="4.07205e-06" y1="62" x2="60.5543" y2="-0.432308" gradientUnits="userSpaceOnUse">
            <stop stop-color="#FFAEC1"/>
            <stop offset="1" stop-color="#FF3565"/>
        </linearGradient>
        <clipPath id="clip0_8_5">
            <rect width="61" height="62" fill="white"/>
        </clipPath>
    </defs>
</svg>
