<svg width="75" height="75" viewBox="0 0 75 75" fill="none" xmlns="http://www.w3.org/2000/svg">
<path d="M29.2939 20.025C26.5751 20.1297 24.1173 21.1 22.8032 22.4156C22.6581 22.5607 22.4857 22.6757 22.2961 22.7542C22.1065 22.8327 21.9032 22.873 21.698 22.873C21.4928 22.8729 21.2896 22.8324 21.1 22.7538C20.9104 22.6752 20.7382 22.56 20.5931 22.4148C20.448 22.2697 20.333 22.0973 20.2545 21.9077C20.176 21.7181 20.1357 21.5148 20.1357 21.3096C20.1358 21.1044 20.1763 20.9012 20.2549 20.7116C20.3335 20.522 20.4487 20.3498 20.5939 20.2047C22.6204 18.1781 25.9204 17.0281 29.172 16.9016C32.4454 16.775 36.0189 17.6703 38.522 20.1734C38.815 20.4666 38.9795 20.8642 38.9793 21.2787C38.9792 21.6932 38.8144 22.0906 38.5212 22.3836C38.228 22.6766 37.8305 22.8411 37.416 22.8409C37.0015 22.8408 36.604 22.676 36.3111 22.3828C34.6079 20.6781 31.9923 19.9187 29.2939 20.0234V20.025Z" fill="#F8F8F8"/>
<path fill-rule="evenodd" clip-rule="evenodd" d="M45.2125 42.7875C48.3107 39.1263 50.0074 34.4836 50 29.6875C50 18.4688 40.9062 9.375 29.6875 9.375C18.4688 9.375 9.375 18.4688 9.375 29.6875C9.375 40.9062 18.4688 50 29.6875 50C34.6797 50 39.25 48.2 42.7875 45.2125L42.1875 48.6625L53.9281 60.4031L60.4031 53.9281L48.6625 42.1875L45.2125 42.7875ZM29.6875 45.3125C38.3172 45.3125 45.3125 38.3172 45.3125 29.6875C45.3125 21.0578 38.3172 14.0625 29.6875 14.0625C21.0578 14.0625 14.0625 21.0578 14.0625 29.6875C14.0625 38.3172 21.0578 45.3125 29.6875 45.3125Z" fill="#F8F8F8"/>
<path d="M56.1377 62.6125L62.6127 56.1375L64.7314 58.2562C65.9236 59.4484 65.9236 61.3813 64.7314 62.5719L62.5721 64.7313C61.3799 65.9234 59.4471 65.9234 58.2564 64.7313L56.1377 62.6125Z" fill="#F8F8F8"/>
</svg>

