<svg width="75" height="75" viewBox="0 0 75 75" fill="none" xmlns="http://www.w3.org/2000/svg">
<path fill-rule="evenodd" clip-rule="evenodd" d="M29.4579 14.2438C17.6923 21.8 11.1563 30.5938 9.84853 40.6297C7.81259 56.25 21.7813 63.8953 28.8595 57.0266C35.9376 50.1563 31.6954 41.4375 26.5704 39.0531C21.4454 36.6703 18.311 37.5 18.8579 34.3141C19.4048 31.1297 26.6954 22.2984 33.1017 18.1859C33.3287 17.9929 33.4735 17.7205 33.5066 17.4244C33.5397 17.1282 33.4586 16.8306 33.2798 16.5922L31.6954 14.5313C31.0079 13.6375 30.3485 13.6719 29.4579 14.2422V14.2438ZM60.436 14.2438C48.6704 21.8 42.1329 30.5953 40.8267 40.6297C38.7907 56.25 52.7595 63.8953 59.8376 57.0266C66.9157 50.1563 62.6735 41.4375 57.547 39.0531C52.422 36.6703 49.2876 37.5 49.8345 34.3141C50.3813 31.1297 57.6735 22.2984 64.0798 18.1859C64.3066 17.9927 64.4511 17.7202 64.4839 17.4241C64.5167 17.1279 64.4353 16.8304 64.2563 16.5922L62.672 14.5313C61.9845 13.6375 61.3251 13.6719 60.436 14.2422V14.2438Z" fill="url(#paint0_linear_29_123)"/>
<defs>
<linearGradient id="paint0_linear_29_123" x1="37.0695" y1="13.8335" x2="37.0695" y2="59.5589" gradientUnits="userSpaceOnUse">
<stop stop-color="#FF7293"/>
<stop offset="1" stop-color="#FF3565"/>
</linearGradient>
</defs>
</svg>

