<svg width="277" height="46" viewBox="0 0 277 46" fill="none" xmlns="http://www.w3.org/2000/svg">
    <g clip-path="url(#clip0_14_158)">
        <path d="M34.666 16.0776C34.1024 15.7177 33.3979 16.0776 33.3979 16.7974V25.435C33.3979 26.0828 34.1024 26.5147 34.666 26.1548L41.0769 21.836C41.5701 21.4761 41.5701 20.7563 41.0769 20.3964L34.666 16.0776Z" fill="#9C9C9C"/>
        <path opacity="0.998" d="M46.2413 29.8072H27.1909C25.0954 29.8072 23.3809 28.0554 23.3809 25.9143V16.1823C23.3809 14.0412 25.0954 12.2894 27.1909 12.2894H46.2413C48.3368 12.2894 50.0513 14.0412 50.0513 16.1823V25.9143C50.0513 28.0554 48.3368 29.8072 46.2413 29.8072Z" stroke="#9C9C9C" stroke-width="4" stroke-miterlimit="10" stroke-linecap="round" stroke-linejoin="round"/>
        <path opacity="0.998" d="M24.3334 34.6732H28.1434" stroke="#9C9C9C" stroke-width="3" stroke-miterlimit="10" stroke-linecap="round" stroke-linejoin="round"/>
        <path opacity="0.998" d="M31.9535 34.6732H49.0988" stroke="#9C9C9C" stroke-width="3" stroke-miterlimit="10" stroke-linecap="round" stroke-linejoin="round"/>
        <path opacity="0.998" d="M30.0485 36.6196C31.1006 36.6196 31.9535 35.7482 31.9535 34.6732C31.9535 33.5982 31.1006 32.7268 30.0485 32.7268C28.9963 32.7268 28.1434 33.5982 28.1434 34.6732C28.1434 35.7482 28.9963 36.6196 30.0485 36.6196Z" stroke="#9C9C9C" stroke-width="3" stroke-miterlimit="10" stroke-linecap="round" stroke-linejoin="round"/>
        <g opacity="0.998">
            <path d="M66.7275 7.64059C66.3048 6.84881 65.389 6.48892 64.5436 6.92079C63.7687 7.35267 63.4164 8.28841 63.8391 9.15216C65.9526 13.399 67.0093 18.0057 67.0093 22.9003C67.0093 27.7949 65.9526 32.4016 63.8391 36.6484C63.4164 37.4402 63.7687 38.4479 64.5436 38.8797C64.7549 39.0237 65.0367 39.0237 65.2481 39.0237C65.8117 39.0237 66.3753 38.6638 66.6571 38.16C68.9819 33.4813 70.1796 28.2987 70.1796 22.9003C70.1796 17.5018 69.0524 12.3912 66.7275 7.64059ZM8.95903 6.92079C8.18408 6.48892 7.19779 6.84881 6.77509 7.64059C4.45026 12.3912 3.25262 17.5018 3.25262 22.9003C3.25262 28.2987 4.45026 33.4093 6.77509 38.16C7.05689 38.7358 7.62049 39.0957 8.18408 39.0957C8.39543 39.0957 8.67723 39.0237 8.88858 38.9517C9.66352 38.5198 10.0158 37.5841 9.59307 36.7204C7.62049 32.4016 6.4933 27.7949 6.4933 22.9003C6.4933 18.0057 7.55004 13.399 9.66352 9.08018C10.0862 8.28841 9.80442 7.28069 8.95903 6.92079ZM55.5261 11.5275C54.7511 11.9594 54.3989 12.8951 54.8216 13.7589C56.2306 16.638 56.9351 19.6612 56.9351 22.9003C56.9351 26.1394 56.2306 29.1625 54.8216 32.0417C54.3989 32.8335 54.7511 33.8412 55.5261 34.273C55.7374 34.417 56.0192 34.417 56.2306 34.417C56.7942 34.417 57.3578 34.0571 57.6396 33.5533C59.2599 30.3142 60.1053 26.6432 60.1053 22.9003C60.1053 19.1573 59.2599 15.5583 57.6396 12.2473C57.2873 11.4555 56.301 11.1676 55.5261 11.5275ZM18.047 11.5275C17.2721 11.0956 16.2858 11.4555 15.8631 12.2473C14.2427 15.4864 13.3973 19.2293 13.3973 22.9003C13.3973 26.5712 14.2427 30.2422 15.8631 33.5533C16.1449 34.1291 16.7085 34.417 17.2721 34.417C17.4834 34.417 17.7652 34.345 17.9765 34.273C18.7515 33.8412 19.1037 32.9054 18.681 32.0417C17.2721 29.1625 16.5676 26.1394 16.5676 22.9003C16.5676 19.6612 17.2721 16.638 18.681 13.7589C19.1742 12.9671 18.8924 11.9594 18.047 11.5275Z" fill="#9C9C9C"/>
        </g>
        <path d="M84.85 11.9654C86.4116 11.9654 87.8062 12.2601 89.0365 12.8517C90.2669 13.4433 91.2111 14.2988 91.8768 15.4221L88.8408 17.7716C87.6849 16.3822 86.2814 15.689 84.6339 15.689C83.6512 15.689 82.8335 15.9106 82.1829 16.3537C81.5323 16.7969 81.2071 17.3577 81.2071 18.0378C81.2071 19.5149 82.5519 20.5197 85.2408 21.0513C87.8717 21.5544 89.73 22.2922 90.8143 23.267C91.8986 24.2417 92.4407 25.6311 92.4407 27.4329C92.4407 29.4716 91.6817 31.0734 90.1637 32.2412C88.6457 33.4091 86.6134 34.0069 84.0699 34.0361C82.1611 34.0361 80.5934 33.7322 79.3638 33.1275C78.1342 32.5228 77.071 31.5811 76.1757 30.3117L79.1251 27.8299C80.6868 29.4855 82.3501 30.3117 84.1128 30.3117C85.2686 30.3117 86.2535 30.0748 87.0622 29.6024C87.8709 29.13 88.2768 28.4792 88.2768 27.6529C88.2768 26.2058 86.9756 25.1995 84.3733 24.6394C81.4819 24.0471 79.537 23.2585 78.5393 22.2684C77.5416 21.2782 77.0431 20.0019 77.0431 18.4348C77.0431 16.4853 77.781 14.9266 79.2553 13.7595C80.7297 12.5925 82.5948 11.9939 84.85 11.9647V11.9654ZM101.376 0V33.5029H97.4729V0H101.376ZM109.877 2.03873C110.659 2.03873 111.331 2.32646 111.895 2.9027C112.46 3.47893 112.741 4.16594 112.741 4.96374C112.741 5.79 112.452 6.48548 111.873 7.04633C111.294 7.60717 110.63 7.88875 109.877 7.88875C109.069 7.88875 108.388 7.60717 107.839 7.04633C107.29 6.48548 107.015 5.79 107.015 4.96374C107.015 4.13748 107.304 3.44123 107.883 2.88039C108.462 2.31954 109.125 2.03873 109.878 2.03873H109.877ZM111.83 12.4971V33.5029H107.926V12.4971H111.83ZM129.223 11.9662C132.259 11.9662 134.738 12.9848 136.662 15.0235C138.586 17.0623 139.574 19.7211 139.633 23C139.633 26.2797 138.65 28.9316 136.683 30.9549C134.717 32.9783 132.215 34.0061 129.179 34.0353C127.676 34.0353 126.273 33.7091 124.972 33.0598C123.672 32.4105 122.689 31.5534 122.023 30.4902H121.936V46H118.032V12.4978H121.936V15.5113H122.023C122.804 14.3881 123.829 13.5172 125.103 12.8971C126.376 12.277 127.748 11.9662 129.223 11.9662ZM121.936 23C121.936 25.1872 122.565 26.9513 123.823 28.2961C125.08 29.6409 126.707 30.3125 128.702 30.3125C130.785 30.3125 132.426 29.6409 133.626 28.2961C134.825 26.9513 135.44 25.188 135.469 23C135.469 20.8135 134.855 19.0564 133.626 17.727C132.396 16.3976 130.741 15.7167 128.659 15.6883C126.605 15.6883 124.972 16.3753 123.757 17.7485C122.542 19.1218 121.936 20.8728 121.936 23ZM151.473 11.9654C153.035 11.9654 154.43 12.2601 155.66 12.8517C156.89 13.4433 157.835 14.2988 158.5 15.4221L155.464 17.7716C154.308 16.3822 152.905 15.689 151.257 15.689C150.275 15.689 149.457 15.9106 148.806 16.3537C148.156 16.7969 147.831 17.3577 147.831 18.0378C147.831 19.5149 149.175 20.5197 151.864 21.0513C154.494 21.5544 156.354 22.2922 157.438 23.267C158.522 24.2417 159.064 25.6311 159.064 27.4329C159.064 29.4716 158.305 31.0734 156.787 32.2412C155.269 33.4091 153.237 34.0069 150.693 34.0361C148.785 34.0361 147.217 33.7322 145.987 33.1275C144.758 32.5228 143.694 31.5827 142.799 30.3133L145.749 27.8314C147.31 29.487 148.974 30.3133 150.736 30.3133C151.892 30.3133 152.877 30.0763 153.686 29.604C154.494 29.1316 154.9 28.4807 154.9 27.6545C154.9 26.2073 153.599 25.2011 150.997 24.641C148.105 24.0486 146.16 23.26 145.163 22.2699C144.165 21.2798 143.667 20.0034 143.667 18.4363C143.667 16.4868 144.404 14.9282 145.879 13.7611C147.354 12.594 149.218 11.9954 151.473 11.9662V11.9654ZM169.214 6.60319V12.4971H174.809V15.9537H169.214V26.0581C169.214 27.4167 169.403 28.4661 169.778 29.2047C170.153 29.9432 170.949 30.3125 172.163 30.3125C173.319 30.3125 174.245 30.1063 174.939 29.6924V33.326C174.186 33.7407 173.003 33.9753 171.382 34.0353C169.821 34.0353 168.613 33.7914 167.76 33.3045C166.908 32.8175 166.286 32.1358 165.896 31.2657C165.506 30.3956 165.31 29.027 165.31 27.1659V15.9537H160.8V12.4971H165.31V6.60396H169.214V6.60319ZM189.99 11.9654C190.713 11.9654 191.291 12.0539 191.725 12.2316L191.552 16.5299C190.917 16.3411 190.261 16.2369 189.6 16.2199C185.754 16.2199 183.803 18.4071 183.744 22.7784V33.5029H179.84V12.4971H183.744V15.7321H183.831C184.351 14.6089 185.19 13.7011 186.346 13.0071C187.502 12.3132 188.717 11.9654 189.991 11.9654H189.99ZM204.52 11.9654C207.671 11.9654 210.122 12.9779 211.872 15.0012C213.622 17.0246 214.511 19.8096 214.54 23.3547V24.4625H198.057C198.057 26.1758 198.73 27.616 200.074 28.7838C201.419 29.9517 203.061 30.5495 204.997 30.5787C207.138 30.5787 209.016 29.5301 210.636 27.4321L213.585 29.7363C211.389 32.6013 208.352 34.0353 204.477 34.0353C201.326 34.0353 198.788 33.009 196.865 30.9549C194.941 28.9008 193.952 26.2512 193.894 23C193.894 19.8688 194.885 17.2608 196.865 15.1782C198.844 13.0956 201.397 12.0255 204.52 11.9654ZM210.376 21.2721C210.317 19.2933 209.768 17.7778 208.727 16.7299C207.686 15.6821 206.255 15.1566 204.433 15.1566C203.219 15.1566 202.129 15.4598 201.159 16.0645C200.189 16.6692 199.431 17.4539 198.882 18.4132C198.333 19.3726 198.057 20.3258 198.057 21.2721H210.376ZM227.466 11.9654C230.068 11.9654 232.128 12.5701 233.646 13.7826C235.164 14.9951 235.967 16.6784 236.053 18.8348V30.0902C236.053 31.1542 236.112 32.2905 236.226 33.5029H232.757C232.665 32.4421 232.622 31.3775 232.626 30.3125H232.54C231.644 31.6704 230.61 32.632 229.439 33.1929C228.268 33.7537 226.902 34.0353 225.34 34.0353C223.23 34.0353 221.516 33.4583 220.2 32.3066C218.884 31.1549 218.227 29.6324 218.227 27.7422C218.227 25.3495 219.209 23.5385 221.176 22.3137C223.143 21.089 225.919 20.4743 229.504 20.4743H232.41V19.7203C232.41 18.3024 231.955 17.1885 231.044 16.3753C230.133 15.5621 228.94 15.1566 227.466 15.1566C226.366 15.1566 225.405 15.3267 224.581 15.6659C223.757 16.0052 222.781 16.6345 221.653 17.5493L219.312 15.0674C221.538 13.0579 224.256 12.0255 227.466 11.9654ZM222.13 27.4321C222.13 29.7078 223.605 30.8441 226.554 30.8441C228.317 30.8441 229.728 30.3056 230.783 29.227C231.839 28.1484 232.382 26.5897 232.41 24.5517V23.3993H230.198C227.654 23.3993 225.672 23.7316 224.256 24.3963C222.839 25.061 222.13 26.0735 222.13 27.4321ZM252.059 11.9654C255.036 11.9654 257.177 13.2656 258.478 15.866C259.143 14.6243 260.054 13.6657 261.21 12.9848C262.366 12.304 263.624 11.9654 264.983 11.9654C270.16 11.9654 272.763 15.0082 272.792 21.0944V33.5037H268.888V21.5813C268.888 19.5141 268.525 18.0139 267.803 17.0831C267.081 16.1522 265.966 15.6875 264.463 15.6875C262.7 15.6875 261.383 16.2345 260.516 17.3269C259.649 18.4194 259.215 19.9265 259.215 21.8475V33.5029H255.311V22.2014C255.311 19.7203 254.965 18.0139 254.27 17.0831C253.575 16.1522 252.477 15.6875 250.974 15.6875C249.354 15.6875 248.062 16.323 247.092 17.5931C246.122 18.8633 245.639 20.4735 245.639 22.4238V33.5022H241.735V12.4971H245.379V15.7767H245.465C245.899 14.742 246.761 13.8488 248.046 13.0956C249.331 12.3424 250.67 11.9654 252.059 11.9654Z" fill="#9C9C9C"/>
    </g>
    <defs>
        <clipPath id="clip0_14_158">
            <rect width="277" height="46" fill="white"/>
        </clipPath>
    </defs>
</svg>
