<svg width="75" height="75" viewBox="0 0 75 75" fill="none" xmlns="http://www.w3.org/2000/svg">
<path d="M17.1875 28.125C18.4307 28.125 19.623 27.6311 20.5021 26.7521C21.3811 25.873 21.875 24.6807 21.875 23.4375C21.875 22.1943 21.3811 21.002 20.5021 20.1229C19.623 19.2439 18.4307 18.75 17.1875 18.75C15.9443 18.75 14.752 19.2439 13.8729 20.1229C12.9939 21.002 12.5 22.1943 12.5 23.4375C12.5 24.6807 12.9939 25.873 13.8729 26.7521C14.752 27.6311 15.9443 28.125 17.1875 28.125ZM54.4062 36.1875C55.5312 37.3125 56.25 38.875 56.25 40.625C56.25 42.3438 55.5625 43.9062 54.4062 45.0312L38.7812 60.6562C38.2016 61.2388 37.5126 61.7012 36.7537 62.0166C35.9949 62.3321 35.1812 62.4945 34.3594 62.4945C33.5376 62.4945 32.7239 62.3321 31.965 62.0166C31.2061 61.7012 30.5171 61.2388 29.9375 60.6562L8.09375 38.8125C6.9375 37.6562 6.25 36.0938 6.25 34.375V18.75C6.25 15.2812 9.03125 12.5 12.5 12.5H28.125C29.8438 12.5 31.4062 13.1875 32.5312 14.3125L54.4062 36.1875ZM42.3125 17.8438L45.4375 14.7188L66.9062 36.1875C68.0625 37.3125 68.75 38.9062 68.75 40.625C68.75 42.3438 68.0625 43.9062 66.9375 45.0312L50.125 61.8438L47 58.7188L64.8438 40.625L42.3125 17.8438Z" fill="#F8F8F8"/>
</svg>

